<?xml version="1.0" encoding="UTF-8"?>
<svg id="Layer_2" data-name="Layer 2" xmlns="http://www.w3.org/2000/svg" viewBox="0 0 223.76 184.51">
  <defs>
    <style>
      .cls-1 {
        fill: #007ced;
      }
    </style>
  </defs>
  <g id="Layer_1-2" data-name="Layer 1">
    <g>
      <path class="cls-1" d="m0,52.77c2.03-1,4.04-2.01,6.08-2.98,3.26-1.56,6.52-3.11,9.79-4.65,3.97-1.88,7.96-3.75,11.93-5.64,3.02-1.44,6.03-2.91,9.05-4.35,3.99-1.9,7.99-3.77,11.98-5.67,3.16-1.51,6.31-3.05,9.47-4.56,3.98-1.9,7.97-3.78,11.96-5.67,3.13-1.49,6.26-2.99,9.39-4.48,3.89-1.85,7.78-3.68,11.67-5.54,3.29-1.58,6.57-3.18,9.86-4.77,2.99-1.45,5.96-2.94,8.99-4.29.58-.26,1.51-.17,2.07.16,3.7,2.15,7.33,4.41,11,6.62,2.99,1.8,5.99,3.55,8.98,5.34,3.68,2.2,7.35,4.42,11.03,6.62,3.58,2.14,7.16,4.26,10.74,6.4,3.68,2.2,7.33,4.45,11.01,6.64,3.22,1.92,6.49,3.76,9.71,5.67,3.43,2.04,6.83,4.14,10.24,6.2,2.87,1.74,5.74,3.48,8.62,5.21,5.13,3.09,10.27,6.17,15.41,9.24,1.92,1.15,3.9,2.2,5.81,3.38.37.23.76.84.76,1.28.04,24.91.03,49.82.03,74.74,0,.08-.03.16-.08.45-1.26,0-2.56,0-3.86,0-4.08,0-8.16-.04-12.25.03-.99.02-1.25-.27-1.25-1.3.02-15.29.01-30.58,0-45.86,0-5.75,0-11.5,0-17.25,0-1.61-.07-1.68-1.5-1.07-4.69,2-9.36,4.03-14.04,6.05-6.2,2.68-12.39,5.37-18.59,8.04-4.99,2.15-9.99,4.3-14.99,6.44-4.01,1.71-8.04,3.37-12.05,5.1-4.18,1.8-8.34,3.66-12.52,5.46-4.15,1.79-8.32,3.51-12.47,5.29-2.64,1.13-5.25,2.35-7.89,3.48-.37.16-.94.22-1.27.03-3.81-2.18-7.59-4.42-11.39-6.62-2.54-1.48-5.09-2.92-7.63-4.39-5.03-2.92-10.05-5.86-15.08-8.78-4.3-2.5-8.61-4.97-12.92-7.46-5.03-2.92-10.05-5.86-15.08-8.78-4.13-2.4-8.27-4.79-12.41-7.2-5.16-3-10.31-6.01-15.47-9-4.17-2.42-8.35-4.83-12.52-7.24-.09-.05-.23-.03-.34-.04,0-.08,0-.17,0-.25Z"/>
      <path class="cls-1" d="m181.05,100.2c0,.58,0,.99,0,1.41,0,14.58.02,29.17,0,43.75,0,4.9-1.19,9.44-4.03,13.36-2.59,3.58-5.87,6.36-9.41,8.77-6.31,4.29-13.2,7.2-20.31,9.51-3.91,1.28-7.91,2.26-11.9,3.26-3.3.83-6.63,1.57-9.97,2.19-2.63.49-5.29.81-7.95,1.05-3.71.33-7.44.52-11.16.77-1.34.09-2.69.3-4.03.23-3.22-.17-6.43-.43-9.64-.74-2.92-.28-5.85-.55-8.75-1.02-3.36-.55-6.71-1.25-10.04-2-6.38-1.45-12.65-3.3-18.79-5.69-6.63-2.58-13.05-5.63-18.77-10.09-3.71-2.9-6.99-6.31-8.98-10.9-1.02-2.36-1.58-4.81-1.58-7.42,0-19.04-.02-38.08-.03-57.12,0-.12.03-.24.07-.53.41.13.83.18,1.17.38,4.51,2.6,9.02,5.22,13.52,7.85,4.31,2.51,8.6,5.06,12.91,7.56,3.31,1.92,6.65,3.77,9.95,5.68,4.28,2.48,8.52,5.02,12.8,7.5,3.44,1.99,6.92,3.91,10.37,5.9,3.45,1.99,6.88,4.03,10.32,6.05,1.94,1.14,3.86,2.32,5.81,3.43.28.16.74.14,1.04.02,4.12-1.73,8.24-3.49,12.35-5.24,2.98-1.27,5.96-2.52,8.93-3.81,4.74-2.06,9.47-4.15,14.21-6.22,5.02-2.18,10.04-4.35,15.06-6.53,3.44-1.49,6.88-2.97,10.32-4.45,5.19-2.23,10.38-4.46,15.58-6.68.24-.1.51-.11.94-.2Z"/>
      <path class="cls-1" d="m223.76,183.76c-.02.2-.03.39-.05.59-.73.04-1.47.11-2.2.12-10.53,0-21.05,0-31.58,0l-.21-.2c.65-1.56,1.27-3.14,1.94-4.69,2.13-4.87,3.53-9.97,4.6-15.21.91-4.45,1.54-8.9,1.6-13.45.01-.94.08-1.89.26-2.8.07-.33.55-.79.84-.79,4.7-.04,9.4-.04,14.1,0,.8,0,1.59.19,2.51.31-.41,12.82,2.67,24.8,8.18,36.14Z"/>
    </g>
  </g>
</svg>