<?xml version="1.0" encoding="UTF-8"?>
<svg id="Layer_2" data-name="Layer 2" xmlns="http://www.w3.org/2000/svg" viewBox="0 0 240 233">
  <defs>
    <style>
      .cls-1 {
        fill: #007CED;
      }
    </style>
  </defs>
  <g id="Layer_1-2" data-name="Layer 1">
    <path class="cls-1" d="m239.52,128.69c-.17,1.24-.33,2.48-.52,3.71-.57,3.63-1.18,7.26-1.73,10.9-.81,5.31-2.5,10.38-4.13,15.46-2.18,6.84-5.24,13.31-8.91,19.47-2.48,4.16-4.99,8.32-7.85,12.22-2.52,3.43-5.49,6.54-8.34,9.72-1.82,2.04-3.72,4.02-5.69,5.91-6.37,6.09-13.39,11.36-20.97,15.86-7.36,4.38-15.1,7.98-23.29,10.59-2.51.8-4.83.68-6.66-1.48-1.07-1.27-1.42-2.82-1.43-4.42-.02-11,.07-21.99-.04-32.99-.06-5.6-.91-11.12-3.8-16.06-1.1-1.89-2.58-3.55-3.93-5.39.81-.14,1.76-.36,2.73-.45,6.45-.62,12.67-2.2,18.78-4.34,5.76-2.01,11.06-4.83,15.69-8.76,5.07-4.3,8.94-9.53,11.64-15.64,1.94-4.39,3.13-8.98,4.11-13.63.51-2.37.63-4.84.78-7.28.24-3.82.55-7.65.47-11.46-.12-5.71-1.42-11.2-3.66-16.48-1.88-4.44-4.45-8.42-7.64-12.03-.62-.71-.68-1.42-.44-2.36.61-2.38,1.19-4.78,1.49-7.22.29-2.32.28-4.68.28-7.03,0-3.95-.82-7.79-1.88-11.57-.33-1.16-.75-2.29-1.08-3.45-.26-.92-.79-1.26-1.77-1.3-4.77-.16-9.27.9-13.65,2.72-6,2.49-11.74,5.43-17.14,9.05-.68.46-1.88.38-2.79.23-3.07-.51-6.09-1.31-9.17-1.74-3.92-.55-7.88-.87-11.83-1.27-1.23-.12-2.46-.23-3.69-.24-3.79-.03-7.6-.19-11.38.04-3.79.23-7.57.76-11.32,1.38-3.22.53-6.39,1.36-9.59,2.04-1.25.26-2.25-.3-3.29-.96-5.97-3.79-12-7.46-18.84-9.57-3.66-1.13-7.37-1.74-11.2-1.68-.68.01-1.04.22-1.29.86-1.38,3.64-2.37,7.37-2.82,11.23-.17,1.46-.44,2.91-.48,4.37-.16,5.05.45,10.02,2.07,14.82.29.87-.17,1.23-.58,1.68-4.3,4.84-7.4,10.34-9.31,16.51-1.07,3.45-1.82,6.97-1.95,10.6-.06,1.73-.29,3.45-.24,5.18.26,8.6,1.14,17.11,4.24,25.25,1.98,5.18,4.59,9.97,8.21,14.23,4.78,5.61,10.73,9.53,17.45,12.45,5.85,2.54,11.97,4.09,18.25,5.11,2.01.33,4.03.57,6.22.87-.2.33-.32.63-.52.83-3.36,3.3-5.05,7.45-6.1,11.91-.1.43-.19.87-.24,1.31-.14,1.29-.78,1.99-2.07,2.46-4.05,1.45-8.19,2.43-12.48,2.51-5,.09-9.37-1.76-13.33-4.71-3.35-2.5-5.63-5.89-7.87-9.32-2.5-3.83-5.73-6.94-9.79-9.05-3.49-1.82-7.21-2.89-11.21-2.02-1.95.42-3.23,1.68-1.6,3.51,1.29,1.44,2.78,2.8,4.41,3.81,2.6,1.6,4.51,3.81,6.4,6.1,3.12,3.79,4.9,8.31,7.03,12.65,2.61,5.32,6.91,8.9,12.31,11.35,5.83,2.65,11.97,2.91,18.17,2.6,2.62-.13,5.22-.79,7.83-1.18.41-.06.83,0,1.43,0,0,.4,0,.79,0,1.18,0,6.18.08,12.37-.05,18.55-.04,1.89-.49,3.84-1.11,5.64-.73,2.12-4.91,3.03-7.55,2.06-5.75-2.11-11.42-4.39-16.81-7.29-5.99-3.22-11.87-6.64-17.27-10.83-5.54-4.3-10.56-9.13-15.4-14.15-2.05-2.13-4.01-4.37-5.75-6.75-3.28-4.49-6.6-8.98-9.46-13.74-3.85-6.4-7.28-13.06-9.56-20.22-1.55-4.87-3.09-9.76-4.22-14.73-1.04-4.62-2.08-9.3-1.84-14.12.03-.68-.14-1.36-.22-2.05.08-.13.24-.25.24-.38.01-2.59.01-5.19.01-7.78-.11,0-.23,0-.34,0-.07,2.71-.13,5.42-.2,8.13-.16.01-.32.03-.48.04,0-6.22,0-12.45,0-18.67.23-.03.46-.07.48-.07.35-3.05.54-6.03,1.06-8.96.77-4.28,1.75-8.53,2.69-12.78,1.18-5.32,3.28-10.32,5.39-15.32,3.63-8.59,8.34-16.54,13.85-24.07,3.36-4.59,6.99-8.91,11.02-12.89,3.21-3.17,6.35-6.45,9.89-9.22,4.23-3.31,8.79-6.23,13.33-9.13,6.41-4.09,13.15-7.61,20.38-10.07,4.65-1.59,9.35-3.12,14.13-4.25,4.5-1.06,9.11-1.69,13.71-2.28C109.83.46,113.77.03,117.68,0c4.44-.03,8.89.37,13.33.7,2.97.22,5.96.44,8.87,1.03,5.06,1.03,10.1,2.2,15.07,3.59,6.9,1.92,13.62,4.44,19.84,8,5.46,3.13,10.74,6.59,16.04,9.99,2.01,1.29,3.99,2.7,5.78,4.27,3.14,2.76,6.19,5.63,9.15,8.57,2.31,2.3,4.58,4.67,6.6,7.23,4.48,5.68,8.81,11.5,12.16,17.93,2.39,4.58,4.71,9.22,6.74,13.97,2.92,6.84,5.06,13.96,6.24,21.32.56,3.52,1,7.06,1.51,10.58.13.94.31,1.88.46,2.82.02.56.04,1.13.06,1.69-.09.42-.18.85-.27,1.27,0,.78-.09,1.58.03,2.34.11.66.46,1.27.71,1.91v2.99c-.16,2.83-.32,5.66-.48,8.49Z"/>
  </g>
</svg>