<?xml version="1.0" encoding="utf-8"?>
<!-- Generator: Adobe Illustrator 27.7.0, SVG Export Plug-In . SVG Version: 6.00 Build 0)  -->
<svg version="1.1" id="Layer_2_00000070799853840136722830000000517317241956666776_"
	 xmlns="http://www.w3.org/2000/svg" xmlns:xlink="http://www.w3.org/1999/xlink" x="0px" y="0px" viewBox="0 0 50 50"
	 style="enable-background:new 0 0 50 50;" xml:space="preserve">
<style type="text/css">
	.st0{fill:#007CED;}
</style>
<g id="Layer_1-2">
	<g>
		<path class="st0" d="M3,9.8c3-1,5.8-2,8.7-3c3.7-1.3,7.5-2.7,11.2-4.1c1.2-0.5,2.4-0.5,3.6,0C32.8,4.8,39.1,6.9,45.4,9
			c1.3,0.4,1.6,1.5,1.3,3.4c-0.3,1.8-0.5,3.6-0.7,5.3c-0.3,2.4-0.6,4.8-0.9,7.1c-0.2,1.5-0.4,3.1-0.6,4.6c-0.3,2.5-0.4,5-0.8,7.4
			c-0.1,0.6-0.7,1.3-1.2,1.6c-3.4,1.9-6.9,3.7-10.3,5.5c-2.2,1.2-4.4,2.4-6.5,3.7c-0.8,0.5-1.4,0.2-2-0.2
			c-5.1-2.8-10.1-5.7-15.3-8.3c-1.9-0.9-2.3-2.2-2.5-4c-0.3-2.5-0.7-5.1-1-7.6c-0.3-2.4-0.5-4.7-0.8-7.1c-0.3-2.4-0.7-4.8-0.9-7.1
			C3.2,12.2,3.1,11.1,3,9.8L3,9.8z M24.9,7.1c-4.4,9.4-8.7,18.6-13.1,27.9c1.4,0,2.6,0,3.9,0c0.7,0,1-0.3,1.3-0.9
			c0.6-1.4,1.1-2.8,1.9-4.2c0.2-0.5,1-0.9,1.5-0.9c3.1-0.1,6.2-0.1,9.2,0c0.5,0,1.2,0.5,1.5,0.9c0.8,1.4,1.4,2.9,2.1,4.3
			c0.2,0.3,0.5,0.6,0.8,0.7c1.3,0.1,2.6,0,4.1,0C33.6,25.7,29.3,16.6,24.9,7.1z"/>
		<path class="st0" d="M28.6,24.6c-0.8,0.5-4.6,0.6-7.4,0.3c1.2-2.6,2.4-5.1,3.7-8C26.4,19.4,27.1,22.1,28.6,24.6L28.6,24.6z"/>
	</g>
</g>
</svg>
