<?xml version="1.0" encoding="UTF-8"?>
<svg id="Layer_2" data-name="Layer 2" xmlns="http://www.w3.org/2000/svg" viewBox="0 0 42.01 45.78">
  <defs>
    <style>
      .cls-1 {
        fill: #007ced;
      }
    </style>
  </defs>
  <g id="Layer_1-2" data-name="Layer 1">
    <g>
      <path class="cls-1" d="m0,22.67C0,19.72.02,16.76,0,13.81c0-1.71.61-3.08,2.12-3.95,2.68-1.55,5.37-3.08,8.05-4.6,2.62-1.49,5.28-2.92,7.87-4.46,2.51-1.5,4.74-.62,6.95.64,3.88,2.2,7.75,4.41,11.61,6.64,1.36.79,2.75,1.55,3.97,2.53,1.22.98,1.39,2.56,1.41,3.99.07,5.49.01,10.99.04,16.49.01,2.95-1.75,4.61-4.08,5.91-4.87,2.72-9.75,5.44-14.62,8.15-1.45.81-2.84.9-4.36.03-5.1-2.91-10.21-5.78-15.37-8.58-1.54-.83-2.98-1.62-3.39-3.48-.08-.39-.17-.79-.17-1.19-.01-3.08,0-6.16,0-9.24Zm30.66-7.08c-.97-.92-1.77-1.81-2.7-2.53-2.27-1.76-4.94-2-7.72-2.05-4.73-.09-8.81,3.34-10.38,7.14-2.06,4.97-.73,10.61,3.72,14.09,1.64,1.28,3.43,2.29,5.51,2.53,4.23.48,7.83-.96,10.87-3.87.17-.16.1-.91-.1-1.08-.71-.58-1.61-.94-2.3-1.55-1.05-.93-1.95-.73-2.81.16-1.77,1.85-5.64,1.74-7.67.29-2.56-1.83-3.62-5.09-2.87-7.89.78-2.9,4.45-5.76,7.91-4.76,1.13.33,2.22.9,3.24,1.49.58.33.99.53,1.62.14,1.12-.7,2.3-1.32,3.69-2.12Zm.27,2.25c.51,1.79-.41,2.21-1.86,1.98v1.82c.66.49,1.84-.44,1.95,1.06.12,1.76-1.36.79-1.94,1.2v1.87c.69.03,1.29.06,1.88.09.03.71.06,1.32.09,1.87h1.91c.03-.69.06-1.29.09-1.84h2.02v1.83h2.01v-1.99h1.83v-1.96h-1.86v-1.96h1.9v-2.01h-1.95v-1.94h-1.91q-.2,2.08-2.1,1.82v-1.83h-2.05Z"/>
      <path class="cls-1" d="m33.06,23.88v-2.02c1.45-.1,2.02.23,1.93,1.18-.13,1.36-1.22.49-1.93.83Z"/>
    </g>
  </g>
</svg>