<?xml version="1.0" encoding="UTF-8"?>
<svg id="Layer_2" data-name="Layer 2" xmlns="http://www.w3.org/2000/svg" viewBox="0 0 33.9 37.64">
  <defs>
    <style>
      .cls-1 {
        fill: #007ced;
      }
    </style>
  </defs>
  <g id="Layer_1-2" data-name="Layer 1">
    <path class="cls-1" d="m0,0h33.89c-.13,1.32-.25,2.61-.38,3.9-.33,3.38-.67,6.76-.99,10.14-.12,1.23-.17,2.46-.26,3.69-.25,3.4-.49,6.8-.76,10.2-.14,1.75-.28,3.51-.53,5.25-.05.38-.48.9-.84,1.01-4.01,1.16-8.03,2.32-12.09,3.33-1.01.25-2.2.12-3.22-.16-3.52-.96-6.97-2.21-10.51-3.05-1.55-.37-1.44-1.39-1.54-2.34-.4-4-.69-8-1.03-12.01-.24-2.82-.49-5.63-.75-8.45C.68,7.97.34,4.42.01.88c-.02-.25,0-.5,0-.88Zm26.06,8.03H7.67c.12,1.36.23,2.64.34,3.93,4.19,0,8.19,0,12.18,0,.95,0,1.95-.15,1.34,1.38-.13.32-.07.75-.01,1.12.18,1.21-.3,1.58-1.52,1.54-2.56-.09-5.13-.03-7.75-.03,0,1.07.05,1.98-.01,2.89-.06.9.31,1.15,1.17,1.13,2.29-.05,4.58-.05,6.87.02.33,0,.92.48.93.76.04,1.01-.09,2.04-.22,3.05-.03.23-.24.54-.45.63-1.82.85-3.6,1.67-5.73.73-1.96-.86-2.01-.74-2.07-2.95,0-.07-.08-.13-.12-.19h-3.92c.11,1.71.16,3.36.34,4.98.04.34.46.8.8.92,1.89.65,3.8,1.29,5.74,1.75.9.22,1.93.21,2.83,0,1.64-.38,3.21-1.05,4.85-1.46,1.39-.35,1.79-1.16,1.78-2.52-.01-2.48.08-4.96.24-7.44.21-3.4.52-6.78.79-10.25Z"/>
  </g>
</svg>