<?xml version="1.0" encoding="UTF-8"?>
<svg id="Layer_2" data-name="Layer 2" xmlns="http://www.w3.org/2000/svg" viewBox="0 0 33.86 37.7">
  <defs>
    <style>
      .cls-1 {
        fill: #007ced;
      }
    </style>
  </defs>
  <g id="Layer_1-2" data-name="Layer 1">
    <g>
      <path class="cls-1" d="m0,0h33.86c-.21,2.09-.44,4.14-.63,6.2-.35,3.79-.68,7.58-1,11.37-.19,2.21-.33,4.42-.51,6.63-.25,3.1-.48,6.21-.78,9.31-.02.25-.39.61-.66.69-4.13,1.2-8.22,2.53-12.42,3.43-1.5.32-3.26-.36-4.86-.77-2.88-.73-5.72-1.59-8.58-2.39-1.16-.32-1.67-1-1.75-2.27-.24-3.67-.64-7.34-.96-11.01-.19-2.25-.32-4.5-.52-6.75-.31-3.42-.67-6.84-.98-10.26C.11,2.83.08,1.47,0,0Zm1.98,2.14c0,.32-.04.73,0,1.13.32,3,.69,6,.97,9.01.23,2.5.32,5,.52,7.5.31,3.79.69,7.58.97,11.38.07.95.42,1.48,1.34,1.74,3.2.91,6.39,1.87,9.6,2.77.64.18,1.4.35,2.02.18,3.6-.99,7.18-2.06,10.74-3.16.34-.11.74-.58.81-.94.18-1.04.18-2.12.29-3.18.32-3.13.7-6.25.98-9.39.22-2.41.33-4.84.52-7.26.09-1.1.27-2.19.38-3.28.21-2.11.41-4.22.63-6.51H1.98Z"/>
      <path class="cls-1" d="m8.68,22.97c1.01,0,1.97-.08,2.9.04.33.04.82.54.85.86.09,1.02.73,1.45,1.55,1.57,2.15.3,4.31.41,6.42-.24.31-.1.75-.44.78-.71.17-1.46.23-2.93.34-4.53-3.83,0-7.53,0-11.22,0-1.78,0-1.73,0-1.59-1.74.21-2.66.33-5.34.52-8,.05-.73.19-1.44.29-2.21h15.26c.24,1.73.51,3.42.66,5.11.02.26-.46.76-.76.8-.85.11-1.73.04-2.71.04,0-.4-.03-.72,0-1.03.08-.8-.33-.99-1.05-.98-2.5.03-5,.01-7.7.01-.12,1.28-.23,2.55-.36,3.95h12.35c0,2.15.06,4.2-.02,6.24-.07,1.63-.28,3.26-.5,4.87-.05.36-.36.9-.64.97-2.54.63-5.08,1.47-7.66,1.62-1.81.11-3.68-.72-5.51-1.17-1.93-.47-1.92-.5-1.92-2.55,0-.5.03-1-.01-1.5-.04-.44-.16-.87-.28-1.43Z"/>
    </g>
  </g>
</svg>