<?xml version="1.0" encoding="UTF-8"?>
<svg id="Layer_2" data-name="Layer 2" xmlns="http://www.w3.org/2000/svg" viewBox="0 0 38.82 48.59">
  <defs>
    <style>
      .cls-1 {
        fill: #007ced;
      }
    </style>
  </defs>
  <g id="Layer_1-2" data-name="Layer 1">
    <g>
      <path class="cls-1" d="m17.42,47.65c.31-.05.63-.09.94-.14.34-.15.68-.29,1.03-.44,1.41-.08,2.82-.15,4.23-.23.5.49,1,.97,1.5,1.46"/>
      <path class="cls-1" d="m25.12,48.31c-.5-.49-1-.97-1.5-1.46,1-.08,2-.16,3-.25.25.39.5.79.75,1.18"/>
      <path class="cls-1" d="m13.62,47.37c.58.07,1.16.14,1.75.2.07.13.13.26.2.39"/>
      <path class="cls-1" d="m15.57,47.97c.17-.14.35-.29.52-.43.18-.07.36-.13.54-.2.24.03.48.07.72.1,0,.08.02.15.07.22"/>
      <path class="cls-1" d="m12.62,47.33c.25-.02.5-.05.75-.07.09.04.17.07.26.11"/>
      <path class="cls-1" d="m27.37,47.78c.33.02.67.05,1,.07"/>
      <path class="cls-1" d="m6.62,38.05c-.26.09-.57.12-.77.29-.44.36-1.13.78-1.14,1.2-.01.41.59,1,1.07,1.25,1.82.98,3.85,1.18,5.87,1.26,3.6.14,7.21.35,10.81.22,3.22-.12,6.5-.35,9.4-1.99.75-.42,1.25-1.27,1.87-1.92.18-.18.36-.52.53-.51.22.01.48.26.61.48.71,1.17.21,2.47-1.12,3.27-2.59,1.55-5.44,2.2-8.39,2.46-3.27.29-6.55.79-9.81.68-4.31-.14-8.71-.27-12.74-2.19-.75-.36-1.51-.79-2.12-1.35-1.13-1.05-.81-2.28.75-3.15,1.62-.9,3.37-1.11,5.19-.95,0,.31,0,.63,0,.94Z"/>
      <path class="cls-1" d="m23.48,0c1.26,2.84.61,5.29-1.17,7.45-1.63,1.98-3.44,3.82-5.17,5.71-2.1,2.3-2.19,3.46-.94,5.85.41.78.73,1.61,1.13,2.39.39.77.84,1.52,1.11,2.44-.63-.52-1.3-.99-1.89-1.55-1.92-1.82-3.95-3.52-4.73-6.26-.45-1.59-.19-2.98.84-4.07,1.5-1.59,3.24-2.94,4.83-4.45,1.66-1.58,3.34-3.17,4.86-4.89.57-.64.73-1.64,1.14-2.63Z"/>
      <path class="cls-1" d="m10.6,24.27c-.5.32-1,.64-1.5.96-.02.12-.04.25-.06.37.92.24,1.83.64,2.76.68,2.53.09,5.07.1,7.61.02,2.62-.09,5.24-.32,7.86-.48.27-.02.54,0,.81,0l.14.4c-.98.53-1.91,1.35-2.95,1.54-2.44.43-4.93.61-7.41.8-2.01.15-4.05.36-6.05.21-2.24-.16-4.48-.61-6.68-1.12-.59-.14-1.48-1.06-1.4-1.44.13-.62.88-1.41,1.5-1.57,1.75-.44,3.58-.59,5.38-.85,0,.16,0,.33,0,.49Z"/>
      <path class="cls-1" d="m21.21,25.38c.24-.58.32-.98.53-1.29.94-1.37.89-2.65,0-4.08-.92-1.48-2.1-2.85-2.15-4.78-.05-1.87.57-3.39,2.01-4.51,2.31-1.79,4.86-3.02,8.19-2.92-1.21.86-2.24,1.51-3.18,2.28-.91.74-1.81,1.52-2.55,2.42-1.3,1.61-1.2,2.43-.17,4.26.62,1.1,1.15,2.31,1.43,3.54.41,1.84-.89,2.97-2.15,3.98-.51.41-1.15.65-1.97,1.09Z"/>
      <path class="cls-1" d="m7.4,31.43c.71-1.18,1.57-2.02,3.1-1.85.3,1.59,1.72,1.66,2.82,1.68,3.61.08,7.22.23,10.82-.6.89-.21,2.03.69,3.21,1.14-3.31,2.44-17,3.46-19.95-.37Z"/>
      <path class="cls-1" d="m26.39,37.19c-2.09.5-4.16,1.24-6.28,1.45-3.08.31-6.24.67-9.22-.62-.63-.27-1.02-1.09-1.52-1.66.7-.6,1.38-1.24,2.12-1.79.17-.12.7-.06.81.1,1.49,2.17,3.73,1.33,5.66,1.29,1.71-.03,3.4-.63,5.12-.88,1.46-.21,2.3.94,3.32,1.66,0,.15,0,.3,0,.45Z"/>
      <path class="cls-1" d="m30.97,24.29c2.66-1.34,5.81-.36,6.12,1.83.28,1.96-.01,3.81-1.64,5.26-1.38,1.23-3.82,2.41-5.08,2.35,1.1-1.44,2.42-2.85,3.37-4.48,1.4-2.4.63-3.83-2.08-4.47-.21-.05-.37-.26-.68-.49Z"/>
      <path class="cls-1" d="m27.37,47.78c-.25-.39-.5-.79-.75-1.18,1.73-.38,3.52-.58,5.18-1.17,1.99-.71,3.87-1.73,5.8-2.62.38-.18.77-.35,1.23-.55-.9,3.11-11.12,5.55-11.45,5.52Z"/>
      <path class="cls-1" d="m13.62,47.37c-.09-.04-.17-.07-.26-.11,0-.22,0-.44,0-.66,1.08.09,2.16.17,3.24.26,0,.16.01.31.02.47-.18.07-.36.13-.54.2-.24.01-.48.03-.72.04-.58-.07-1.16-.14-1.75-.2Z"/>
      <path class="cls-1" d="m13.36,46.6c0,.22,0,.44,0,.66-.25.02-.5.05-.75.07-.42-.17-.83-.34-1.25-.51-.08-.16-.16-.32-.25-.48.75.09,1.5.17,2.25.26Z"/>
      <path class="cls-1" d="m11.12,46.35c.08.16.16.32.25.48-.82-.19-1.65-.38-2.47-.57.16-.07.33-.14.49-.21.58.1,1.15.2,1.73.3Z"/>
      <path class="cls-1" d="m6.62,38.05c0-.31,0-.63,0-.94.5.16,1,.31,1.5.47-.01.08-.01.16,0,.24,0,0,0,0,0,0-.08.06-.17.13-.25.19-.42.02-.83.03-1.25.05Z"/>
      <path class="cls-1" d="m11.36,23.61c.36-.02.73-.04,1.09-.06.02.07.03.13.05.2-.37.1-.75.21-1.12.31,0-.15-.01-.31-.02-.46Z"/>
      <path class="cls-1" d="m16.63,47.33c0-.16-.01-.31-.02-.47.33,0,.67,0,1,.01,0,.14,0,.29,0,.43-.09.04-.18.09-.27.13-.24-.03-.48-.07-.72-.1Z"/>
      <path class="cls-1" d="m17.62,47.3c0-.14,0-.29,0-.43.42.07.83.14,1.25.2-.17.09-.34.18-.5.27-.25-.01-.49-.03-.74-.04Z"/>
      <path class="cls-1" d="m18.35,47.34c.17-.09.34-.18.5-.27.18,0,.35,0,.53,0-.34.15-.68.29-1.03.44,0-.06,0-.12,0-.17Z"/>
      <path class="cls-1" d="m10.6,24.27c0-.16,0-.33,0-.49.17-.06.34-.12.51-.18,0,.21,0,.42,0,.63-.18.01-.35.03-.53.04Z"/>
      <path class="cls-1" d="m9.39,46.05c-.16.07-.33.14-.49.21-.15-.08-.31-.17-.46-.25.03-.08.06-.16.09-.24l.87.28Z"/>
      <path class="cls-1" d="m11.13,24.23c0-.21,0-.42,0-.63.08-.03.15-.03.23,0,0,.15.01.31.02.46-.08.05-.16.11-.24.16Z"/>
      <path class="cls-1" d="m7.86,38l.25-.19c-.08.06-.17.13-.25.19Z"/>
      <path class="cls-1" d="m8.12,37.81c-.01-.08-.01-.16,0-.24.07.04.14.08.21.11-.07.04-.14.08-.2.12Z"/>
      <path class="cls-1" d="m18.35,47.34c0,.06,0,.12,0,.17-.31.05-.63.09-.94.14-.05-.07-.07-.14-.07-.22.09-.04.18-.09.27-.13.25.01.49.03.74.04Z"/>
      <path class="cls-1" d="m15.37,47.57c.24-.01.48-.03.72-.04-.17.14-.35.29-.52.43-.07-.13-.13-.26-.2-.39Z"/>
    </g>
    <path class="cls-1" d="m12.62,47.33s4.65,1.63,11,1.18,11.57-3.76,11.57-3.76l-10.06,2.9-6.76.1-5.74-.42Z"/>
  </g>
</svg>