<?xml version="1.0" encoding="UTF-8"?>
<svg id="Layer_2" data-name="Layer 2" xmlns="http://www.w3.org/2000/svg" viewBox="0 0 40.94 45.69">
  <defs>
    <style>
      .cls-1 {
        fill: #007ced;
      }
    </style>
  </defs>
  <g id="Layer_1-2" data-name="Layer 1">
    <path class="cls-1" d="m0,.24C.84.15,1.6.01,2.35.01,14.18,0,26,0,37.83,0c2.9,0,3.44.68,2.95,3.49-.25,1.44-.37,2.91-.5,4.37-.35,3.75-.68,7.5-1,11.25-.19,2.25-.31,4.5-.52,6.75-.3,3.21-.67,6.41-.98,9.62-.13,1.39-.22,2.79-.25,4.19-.02,1-.44,1.56-1.4,1.84-4.24,1.21-8.49,2.41-12.71,3.7-2.01.61-3.93.66-5.95.05-4.03-1.22-8.08-2.36-12.13-3.51-1.45-.41-1.93-1.13-2.09-2.96-.38-4.23-.84-8.46-1.23-12.69-.22-2.37-.3-4.75-.51-7.13-.29-3.25-.66-6.5-.99-9.75-.1-1.02-.2-2.04-.25-3.06C.17,4.24.09,2.31,0,.24Zm26.52,12.72h7.67c.12-1.35.23-2.6.34-3.87h-11.93v17.01c2.35-.39,4.61-.76,6.89-1.14-.08.86-.24,1.54-.19,2.22.09,1.15-.51,1.6-1.51,1.83-1.75.41-3.49.86-5.21,1.29v4.88c3.07-.89,6.03-1.79,9.01-2.58.78-.21.91-.55.96-1.27.19-2.65.48-5.29.72-7.94.1-1.12.16-2.25.25-3.41-2.12.28-4.12.42-6.05.84-.88.19-.93-.1-.93-.71-.01-2.33,0-4.65,0-7.16Zm-12.17,15.91c-2.45-.69-4.59-1.29-6.78-1.9v5.21c3.63,1,7.22,1.98,10.86,2.98V9.09h-4.08v19.78Z"/>
  </g>
</svg>