<?xml version="1.0" encoding="utf-8"?>
<!-- Generator: Adobe Illustrator 27.7.0, SVG Export Plug-In . SVG Version: 6.00 Build 0)  -->
<svg version="1.1" id="Layer_2_00000115483434464525552760000017964097759051587758_"
	 xmlns="http://www.w3.org/2000/svg" xmlns:xlink="http://www.w3.org/1999/xlink" x="0px" y="0px" viewBox="0 0 41.6 41.9"
	 style="enable-background:new 0 0 41.6 41.9;" xml:space="preserve">
<style type="text/css">
	.st0{fill:#007CED;}
</style>
<g id="Layer_1-2">
	<g>
		<path class="st0" d="M40.6,0.3C27.1,13.7,13.6,27.2,0,40.7c0-2,0-4,0-6c0-4,0-7.9,0-11.9c0-0.5,0.3-1.2,0.6-1.6
			C7.4,14.4,14.2,7.7,21,0.9c0.5-0.4,1.2-0.9,1.8-0.9C28.7,0,34.5,0,40.4,0C40.5,0.1,40.5,0.2,40.6,0.3L40.6,0.3z"/>
		<path class="st0" d="M2.1,41.9c0.3-0.3,0.5-0.6,0.7-0.8C8.9,35,15,28.9,21.1,22.8c0.6-0.6,0.9-0.8,1.6-0.1
			c6.1,6.2,12.3,12.3,18.5,18.5c0.1,0.1,0.2,0.3,0.5,0.6H2.1z"/>
		<path class="st0" d="M0.1,0.1h18.2C12.2,6.2,6.2,12.3,0.1,18.4V0.1z"/>
	</g>
</g>
</svg>
