<?xml version="1.0" encoding="UTF-8"?>
<svg id="Layer_2" data-name="Layer 2" xmlns="http://www.w3.org/2000/svg" viewBox="0 0 42.09 48.16">
  <defs>
    <style>
      .cls-1 {
        fill: #007ced;
      }
    </style>
  </defs>
  <g id="Layer_2-2" data-name="Layer 2">
    <g id="Layer_1-2" data-name="Layer 1-2">
      <g>
        <path class="cls-1" d="m19.34,47.73c-.61-.35-1.56-1.15-2.38-1.66-1.27-.77-2.57-1.48-3.86-2.22.96-1.35,2.93-1.78,4.25-.95,1.05.67,2.12,1.32,3.21,1.92.21.12.62.05.85-.09,5.56-3.23,11.13-6.47,16.65-9.77.47-.28.92-1.02.94-1.56.08-3.37.07-6.75.03-10.12-.03-2.94-.14-5.88-.18-8.82,0-.63-.14-1-.75-1.36-4.2-2.46-8.36-4.99-12.54-7.49-1.17-.7-2.37-1.36-3.56-2.05-.79-.46-1.48-.34-2.26.13-4,2.4-8.04,4.74-12.06,7.1-1.39.82-2.79,1.61-4.14,2.49-.26.17-.45.66-.45,1-.03,6.46-.03,12.92,0,19.37,0,.46.29,1.1.65,1.33,1.56.98,3.15,1.98,4.84,2.71,2.15.93,3.75-.37,3.77-2.69.03-4.29,0-8.58,0-12.87v-7.14c.72,0,1.42-.08,2.09.03.32.05.83.46.84.73.08,1.74.02,3.5.05,5.24.04,1.56.16,3.13.21,4.69.04,1.21.05,2.42.02,3.62-.06,2.44-.24,4.88-.22,7.32.02,2.19-2.31,4.3-4.37,4.41-2.97.17-5.14-1.51-7.49-2.79-1.23-.67-2.59-1.27-3.06-2.78-.16-.5-.33-1.01-.33-1.52C.05,27.76.18,21.55,0,15.34c-.08-2.71,1.02-4.34,3.26-5.59C8.87,6.62,14.44,3.42,20.03.24c0,0,.51-.24.99-.24s1.54.54,1.54.54c2.64,1.51,5.28,3.01,7.92,4.53,2.99,1.73,5.97,3.49,8.96,5.21,1.84,1.06,2.63,2.69,2.64,4.75,0,6.16.02,12.32,0,18.48,0,1.86-.8,3.3-2.49,4.26-5.68,3.24-11.33,6.52-17,9.78,0,0-.97.59-1.56.61s-1.07-.08-1.68-.43h-.01Z"/>
        <path class="cls-1" d="m33.98,21.23c-.2.01-.32.02-.44.03-1.32.08-2.44.18-2.88-1.67-.38-1.57-2.12-1.72-3.52-1.79-1.47-.07-2.96.06-4.42.25-1.04.13-1.58.85-1.66,1.94-.09,1.17.56,1.6,1.56,1.78,2.7.49,5.41.95,8.09,1.53.92.2,1.89.57,2.61,1.14,3.08,2.43,1.85,7.25-1.78,8.67-3.66,1.43-7.42,1.47-11.11-.3-2.08-1-3.59-3.51-2.98-5.78.54,0,1.12.04,1.68-.01.68-.06,1.07.14,1.2.85.44,2.41,2.08,3.11,4.36,3.12,1.7.01,3.42-.2,5.1-.5,1.16-.21,1.76-1.16,1.77-2.32,0-1.12-.88-1.47-1.8-1.65-2.26-.43-4.53-.79-6.78-1.26-1.01-.21-2.03-.5-2.95-.94-2.18-1.05-2.47-3.06-2.17-5.14.33-2.3,2-3.59,4.11-4.07,2.69-.61,5.43-.58,8.14.15,2.69.72,4.37,3.5,3.89,5.98h-.02Z"/>
      </g>
    </g>
  </g>
</svg>