<?xml version="1.0" encoding="UTF-8"?>
<svg id="Layer_2" data-name="Layer 2" xmlns="http://www.w3.org/2000/svg" viewBox="0 0 47.74 25.81">
  <defs>
    <style>
      .cls-1 {
        fill: #007ced;
      }
    </style>
  </defs>
  <g id="Layer_1-2" data-name="Layer 1">
    <g>
      <path class="cls-1" d="m47.74,13.74c-.13,1.74-.97,3.15-2.07,4.42-3.02,3.48-7.06,5.16-11.37,6.32-4.44,1.2-9,1.54-13.54,1.21-5.8-.43-11.41-1.79-16.26-5.23C1.85,18.58-.02,16.05,0,12.63c.02-3.17,1.74-5.58,4.18-7.36C7.92,2.53,12.26,1.12,16.79.54,20.25.1,23.79-.09,27.27.04c4.41.17,8.67,1.22,12.71,3.16,3.07,1.47,5.64,3.39,7.19,6.46.31.62.34,1.38.5,2.08-.95.89-.94,1.5.06,2.01ZM22.22,1.78c-1.81.23-3.62.44-5.42.71-4.22.64-8.23,1.9-11.66,4.54-1.69,1.3-3.02,2.92-3.18,5.26-.19,2.94,1.42,4.82,3.53,6.45,4.48,3.43,9.81,4.44,15.2,4.94,4.12.38,8.29.11,12.34-.94,4.09-1.06,7.98-2.54,11.01-5.69,2.28-2.37,2.34-6.23.06-8.59-3.25-3.36-7.38-4.83-11.79-5.7-2.26-.44-4.56-.66-6.84-.98h-3.25Z"/>
      <path class="cls-1" d="m47.74,13.74c-1-.5-1.02-1.11-.06-2.01.02.67.04,1.34.06,2.01Z"/>
      <path class="cls-1" d="m29.99,12.74c.24-1.25.52-2.49.72-3.74.14-.83.44-1.35,1.42-1.28,1.72.13,3.45.11,5.17.28,1.88.19,2.92,2.18,2.32,4.21-.85,2.87-2.54,3.18-5.27,3.5-.73.09-1.49.01-2.18.01-.36,1.02-.55,2.1-1.12,2.88-.24.33-1.32.06-2.09.06.27-1.6.52-3.14.78-4.68.08-.42.16-.83.25-1.25Zm2.4.99c.97,0,1.79.06,2.61-.01,1.28-.11,2.38-1.42,2.2-2.71-.19-1.33-1.32-1.24-2.28-1.26-.83-.02-1.89-.39-2.09.99-.14.96-.28,1.91-.44,2.99Z"/>
      <path class="cls-1" d="m11.04,15.74q-.85,3.19-3.08,2.88c.68-3.62,1.35-7.24,2.05-10.99,2.09.13,4.07.19,6.03.38,1.24.12,2.21.87,2.56,2.04.44,1.45-.11,2.78-1.01,3.96-1.07,1.4-2.68,1.55-4.24,1.72-.77.09-1.56.01-2.31.01Zm.27-2.33c.82.49,3.21.49,3.92-.07.87-.67,1.27-1.71.9-2.59-.22-.53-1.29-.74-2.01-.99-.37-.13-.86-.12-1.23,0-.34.11-.78.4-.88.71-.31.95-.47,1.94-.7,2.94Z"/>
      <path class="cls-1" d="m28.52,13.74c-.1.3-.21.6-.29.91-.25.97-1.61,1.56-2.43,1-.15-.1-.2-.47-.16-.69.25-1.22.55-2.43.82-3.65.15-.68.02-1.32-.74-1.43-.89-.14-1.9-.34-2.68-.04-.46.18-.62,1.27-.8,1.97-.31,1.28-.53,2.58-.78,3.8h-2.42c.75-3.71,1.44-7.28,2.22-10.83.09-.41.66-.83,1.1-1,.43-.17.98-.04,1.55-.04-.26,1.33-.51,2.59-.78,3.94,1.25.11,2.35.23,3.44.31,2.09.14,2.86,1.2,2.37,3.32-.09.39-.17.78-.25,1.18l-.18,1.26Z"/>
    </g>
  </g>
</svg>