<?xml version="1.0" encoding="UTF-8"?>
<svg id="Layer_2" data-name="Layer 2" xmlns="http://www.w3.org/2000/svg" viewBox="0 0 47.56 42.06">
  <defs>
    <style>
      .cls-1 {
        fill: #007ced;
      }
    </style>
  </defs>
  <g id="Layer_1-2" data-name="Layer 1">
    <g>
      <path class="cls-1" d="m1.48,17.7c2.07-2.25,4.82-3.32,7.65-4.21.61-.19,1.07-.38.91-1.12-.52-2.51-.89-5-.53-7.62.46-3.37,3.03-5.29,6.31-4.4,2.27.61,4.24,1.73,5.99,3.26,1.85,1.62,1.73,1.47,3.83-.03,1.84-1.31,3.89-2.42,6-3.24,2.39-.93,4.48.12,5.57,2.47,1.07,2.3,1.13,4.78.64,7.2-.59,2.9-.52,3.24,2.18,4.2.07.03.18-.02.25.01,2.88,1.27,5.9,2.37,7.13,5.71,0,0,.14.18.14,1.2s-.73,2-.73,2c-.66.71-1.18,1.64-1.97,2.12-2.32,1.39-4.75,2.59-7.23,3.92.12.96.34,2.21.42,3.46.08,1.29.09,2.59,0,3.87-.13,1.72-.69,3.28-2.02,4.48-2,1.81-4.95,1.02-7.01-.23-1.83-1.11-3.51-2.46-5.17-3.64-2.05,1.36-4.01,2.99-6.25,4.05-3.77,1.79-7.08,1.04-8.04-3.65-.52-2.55-.21-5.04.4-7.5.22-.86-.1-1.02-.72-1.3-2.07-.96-4.19-1.84-6.12-3.03-1.43-.88-2.75-2.08-3.06-3.94-.01-.43-.03-.86-.04-1.3-.03-.86,1.48-2.74,1.48-2.74Zm30.3-1.97c.46.86.92,1.73,1.38,2.59.14-.01.28-.02.41-.03.46-1.22.93-2.44,1.42-3.75-.84-.12-1.39-.2-1.94-.28-.78-.14-1.56-.28-2.74-.49.64.86,1.05,1.41,1.46,1.96Zm-8.08-2.26c-1.08,0-2.18-.11-3.24.04-.62.09-1.4.47-1.72.97-1.23,1.93-2.31,3.96-3.41,5.97-.14.25-.14.7,0,.95,1.17,2.2,2.35,4.4,3.64,6.53.25.42.99.73,1.52.76,1.66.1,3.34.17,4.98-.01,1.14-.12,2.55.21,3.31-1.1,1.09-1.88,2.19-3.76,3.17-5.69.25-.49.26-1.3.03-1.78-.8-1.62-1.83-3.13-2.63-4.75-.76-1.52-1.85-2.15-3.53-1.91-.69.1-1.41.02-2.12.02Zm-13.1,13.7c.58-1.59.95-2.86,1.51-4.05.62-1.33,1.06-2.49.11-3.96-.75-1.14-1.04-2.57-1.61-4.06-.62.2-1.29.34-1.88.63-1.87.9-3.77,1.76-5.55,2.83-1.68,1.01-1.87,2.54-.72,4.19,1.21,1.75,3.17,2.38,4.97,3.22,1.03.48,2.12.81,3.18,1.21Zm26.19-12.14c-.6,1.59-1.1,2.86-1.56,4.14-.25.71-.75,1.54-.57,2.15.49,1.73,1.27,3.37,1.96,5.04.12.3.31.58.47.87.63-.46.99-.62,1.37-.76,2.31-.89,4.53-1.93,6.28-3.78,1.34-1.42,1.29-2.91-.34-3.93-1.59-1-3.27-1.87-4.95-2.72-.84-.42-1.77-.67-2.66-1Zm-11.8-8.43c1.06,1.3,2.02,2.46,2.96,3.64.6.75,1.04,1.65,2.2,1.74,1.05.09,2.09.28,3.12.48,1.89.38,2.17.2,2.55-1.74.03-.15.2-.3.2-.44-.07-2.14-.02-4.29-.3-6.41-.19-1.44-1.56-1.94-3.04-1.73-3.19.44-5.31,2.58-7.69,4.46Zm-13.36,22.94c-.12,2.47-.29,4.66-.31,6.85-.02,2.47,1.83,4.16,3.84,3.52,2.51-.8,4.69-2.23,6.73-3.89.55-.45.49-.82.02-1.33-.74-.81-1.38-1.71-2.08-2.55-.47-.57-.89-1.47-1.47-1.6-2.09-.46-4.23-.65-6.74-1ZM22.33,6.62c-.59-.51-1.13-1.14-1.8-1.53-1.72-.99-3.44-2.05-5.29-2.76-2.01-.77-3.21-.09-3.7,2.07-.59,2.62-.32,5.28.32,7.89.03.14.49.27.72.24,1.49-.16,3-.29,4.46-.61.7-.15,1.45-.56,1.93-1.09,1.15-1.27,2.14-2.67,3.35-4.22Zm13.83,27.47c-.12-1.26-.28-2.52-.34-3.79-.04-.78-.46-.91-1.07-.81-1.52.23-3.04.45-4.54.76-.58.12-1.26.36-1.64.78-1.08,1.21-2.05,2.53-3,3.85-.16.22-.13.84.06,1,1.93,1.66,3.96,3.18,6.42,3.98,1.49.49,2.6.23,3.2-1.18,0,0,.8-2.38.9-4.59Zm-19.13-5.78c-1.09-1.8-1.97-3.26-2.85-4.71-.7,1.09-.93,2.1-1.42,2.95-.51.9.08,1.21.62,1.32,1.09.24,2.23.28,3.64.44Zm9.55-16.66c-.97-1.28-1.69-2.27-2.47-3.22-.12-.15-.64-.2-.74-.08-.73.81-1.42,1.67-2.09,2.54-.1.13-.12.48-.02.59.1.11.39.05.6.06.69.04,1.37.09,2.06.11.76.02,1.51,0,2.67,0Zm6.96,12.02h-.39c-.83,1.45-1.66,2.9-2.49,4.35.08.08.16.17.24.25,1.39-.27,2.77-.54,4.25-.82-.59-1.38-1.1-2.58-1.62-3.79Zm-9.84,10.44c1.03-1.23,1.91-2.28,2.93-3.5h-5.67c.99,1.27,1.84,2.35,2.73,3.5Zm-9.56-15.35c.96-1.77,1.74-3.2,2.7-4.98-1.72.3-3.01.52-4.47.77.61,1.44,1.15,2.72,1.77,4.21Z"/>
      <path class="cls-1" d="m19.55,20.69c-.16-2.16,1.65-3.73,3.94-3.94,2.31-.21,4.61,2.02,4.56,4.24-.04,2.1-2.29,4.17-4.48,4.25-1.77.06-4.27-1.96-4.03-4.55Z"/>
    </g>
  </g>
</svg>