<?xml version="1.0" encoding="UTF-8"?>
<svg id="Layer_2" data-name="Layer 2" xmlns="http://www.w3.org/2000/svg" viewBox="0 0 112.73 101.45">
  <defs>
    <style>
      .cls-1 {
        fill: #007ced;
        fill-rule: evenodd;
      }
    </style>
  </defs>
  <g id="Layer_1-2" data-name="Layer 1">
    <g id="Page-1">
      <g id="Dribbble-Light-Preview">
        <g id="icons">
          <path id="swift-_146_" data-name="swift-[#146]" class="cls-1" d="m69.45,0c49.55,33.96,33.53,71.4,33.53,71.4,0,0,14.09,16.03,8.39,30.06,0,0-5.81-9.82-15.56-9.82s-14.91,9.82-33.82,9.82C19.9,101.45,0,66.02,0,66.02c37.92,25.14,63.82,7.34,63.82,7.34C46.73,63.36,10.39,15.56,10.39,15.56c31.65,27.15,45.33,34.31,45.33,34.31-8.16-6.8-31.06-40.05-31.06-40.05,18.32,18.7,54.72,44.78,54.72,44.78C89.71,25.73,69.45,0,69.45,0"/>
        </g>
      </g>
    </g>
  </g>
</svg>